<?xml version="1.0" standalone="no"?>
<!DOCTYPE svg PUBLIC "-//W3C//DTD SVG 20010904//EN"
 "http://www.w3.org/TR/2001/REC-SVG-20010904/DTD/svg10.dtd">
<svg version="1.0" xmlns="http://www.w3.org/2000/svg"
 width="1920.000000pt" height="770.000000pt" viewBox="0 0 1920.000000 770.000000"
 preserveAspectRatio="xMidYMid meet">

<g transform="translate(0.000000,770.000000) scale(0.100000,-0.100000)"
fill="#fff" stroke="none">
<path d="M0 4550 l0 -3150 9600 0 9600 0 0 3150 0 3150 -9600 0 -9600 0 0
-3150z m7461 1491 c312 -64 577 -208 810 -440 229 -230 372 -493 440 -811 20
-90 23 -135 23 -310 0 -227 -15 -326 -76 -505 -134 -396 -440 -742 -818 -927
-200 -98 -391 -145 -625 -155 -472 -19 -878 146 -1211 490 -216 222 -359 495
-421 802 -14 70 -18 137 -18 295 0 158 4 225 18 295 42 207 130 417 249 595
77 116 251 298 367 384 217 161 483 271 733 305 117 16 416 6 529 -18z m-4649
-519 l3 -488 420 463 c231 255 432 475 446 489 l25 24 411 -2 410 -3 -534
-597 c-500 -560 -533 -599 -522 -620 7 -13 251 -428 542 -922 291 -495 531
-906 534 -913 4 -11 -208 -13 -1176 -13 l-1181 0 0 1535 0 1535 310 0 310 0 2
-488z m8099 -454 l471 -941 84 163 c47 89 84 170 82 179 -2 9 -157 321 -345
693 l-343 677 0 85 0 86 1555 0 1555 0 0 -80 0 -80 -740 -1452 -739 -1453 -78
-3 -78 -2 -220 429 c-121 236 -220 429 -221 428 -1 -1 -99 -194 -218 -429
l-218 -428 -76 0 -77 0 -737 1450 -738 1449 0 86 0 85 305 0 305 0 471 -942z
m5950 -515 l739 -1452 0 -81 0 -80 -308 0 -307 0 -471 943 -472 942 -92 -186
-93 -186 346 -677 347 -677 0 -80 0 -79 -308 0 -307 0 -209 417 -208 418 -209
-418 -209 -417 -305 0 -305 0 0 85 0 86 738 1449 737 1450 78 -2 78 -3 740
-1452z"/>
<path d="M7018 5429 c-241 -35 -457 -158 -608 -346 -64 -79 -122 -176 -151
-254 l-19 -49 906 0 905 0 -7 23 c-57 183 -244 408 -425 510 -182 102 -403
145 -601 116z"/>
<path d="M6256 4128 c40 -114 131 -245 240 -347 125 -117 261 -191 431 -233
125 -31 322 -31 448 0 173 43 371 160 484 288 76 85 161 228 186 312 l6 22
-905 0 -905 0 15 -42z"/>
<path d="M2922 4220 l-112 -118 0 -276 0 -276 336 0 335 0 -29 53 c-17 28
-114 203 -217 387 -102 184 -189 338 -193 342 -4 4 -58 -46 -120 -112z"/>
<path d="M11780 5395 c0 -12 626 -1255 632 -1255 3 0 149 284 323 630 l316
630 -636 0 c-349 0 -635 -2 -635 -5z"/>
<path d="M2363 1020 c-65 -33 -101 -72 -136 -148 -18 -39 -22 -65 -22 -152 0
-115 15 -163 70 -228 87 -103 280 -121 393 -36 l32 25 0 150 0 149 -115 0
-115 0 0 -70 0 -70 40 0 40 0 0 -44 c0 -51 -17 -63 -74 -52 -82 16 -128 141
-95 259 25 90 110 132 183 89 l34 -20 42 49 c49 58 46 68 -35 105 -75 36 -163
33 -242 -6z"/>
<path d="M9834 1032 c-96 -45 -147 -151 -147 -307 0 -155 49 -255 146 -301 94
-43 200 -29 273 38 67 62 88 126 89 269 0 113 -1 118 -35 185 -48 94 -101 128
-209 132 -58 2 -86 -2 -117 -16z m154 -144 c45 -49 56 -223 18 -296 -35 -68
-103 -65 -133 6 -20 46 -23 191 -4 244 22 66 79 88 119 46z"/>
<path d="M5960 726 l0 -316 80 0 80 0 0 105 0 105 33 0 c31 0 34 -5 87 -105
l55 -105 93 0 93 0 -25 43 c-13 23 -45 78 -69 121 l-44 79 35 31 c46 40 62 81
62 158 0 85 -28 133 -95 167 -46 24 -60 26 -217 29 l-168 4 0 -316z m283 173
c30 -16 37 -28 37 -65 0 -48 -37 -76 -102 -78 l-53 -1 -3 78 -3 77 51 0 c28 0
61 -5 73 -11z"/>
<path d="M13450 813 c0 -136 5 -244 11 -268 15 -55 82 -120 139 -135 26 -7 75
-10 113 -7 86 6 139 39 176 112 25 48 26 55 30 287 l3 238 -81 0 -81 0 0 -210
c0 -236 -7 -274 -56 -286 -35 -9 -76 13 -85 46 -4 14 -7 121 -8 238 l-1 212
-80 0 -80 0 0 -227z"/>
<path d="M17200 725 l0 -315 85 0 85 0 0 99 0 98 81 6 c100 7 161 35 204 95
61 88 39 234 -44 289 -53 36 -96 43 -258 43 l-153 0 0 -315z m305 160 c32 -31
32 -75 2 -111 -19 -22 -34 -28 -80 -32 l-57 -4 0 86 0 86 55 0 c46 0 60 -4 80
-25z"/>
</g>
</svg>
